<svg width="392" height="294" viewBox="0 0 392 294" fill="none" xmlns="http://www.w3.org/2000/svg">
<g clip-path="url(#clip0_6_274)">
<path d="M295.426 90.1056H98.8247V91.0743H295.426V90.1056Z" fill="#CCCCCC"/>
<path d="M197.456 0.485168H196.485V90.5889H197.456V0.485168Z" fill="#CCCCCC"/>
<path d="M279.761 45.0528H114.18V46.0215H279.761V45.0528Z" fill="#CCCCCC"/>
<path d="M228.282 159.996C228.284 164.924 226.492 169.685 223.241 173.393C222.95 173.727 222.644 174.047 222.334 174.361H193.468C193.157 174.047 192.851 173.727 192.56 173.393C190.653 171.223 189.232 168.672 188.393 165.91C188.393 165.91 188.398 165.91 188.393 165.905C187.812 163.989 187.518 161.998 187.52 159.996C187.518 159.172 187.568 158.349 187.67 157.531C188.274 152.603 190.661 148.066 194.382 144.773C198.103 141.48 202.902 139.659 207.875 139.653C212.847 139.646 217.651 141.454 221.381 144.737C225.111 148.02 227.51 152.551 228.127 157.477C228.23 158.313 228.282 159.154 228.282 159.996Z" fill="#2F2E41"/>
<path d="M182.212 174.361H179.718L181.654 173.393L181.712 173.364L181.727 173.393L182.212 174.361Z" fill="#2F2E41"/>
<path d="M199.207 174.361H196.713L197.199 173.393L197.213 173.364L197.271 173.393L199.207 174.361Z" fill="#2F2E41"/>
<path d="M206.473 161.974C210.321 161.974 213.439 158.86 213.439 155.02C213.439 151.179 210.321 148.065 206.473 148.065C202.626 148.065 199.507 151.179 199.507 155.02C199.507 158.86 202.626 161.974 206.473 161.974Z" fill="white"/>
<path d="M205.742 158.045C206.645 157.144 206.64 155.677 205.73 154.769C204.821 153.861 203.352 153.856 202.449 154.758C201.546 155.659 201.551 157.126 202.46 158.034C203.37 158.942 204.839 158.947 205.742 158.045Z" fill="#3F3D56"/>
<path d="M223.979 137.86C224.285 130.327 217.782 123.947 209.453 123.609C201.124 123.271 194.124 129.104 193.817 136.637C193.511 144.17 199.3 145.882 207.629 146.22C215.958 146.557 223.672 145.393 223.979 137.86Z" fill="#252525"/>
<path d="M213.498 168.016C213.607 168.615 213.597 169.229 213.469 169.824C213.34 170.42 213.095 170.984 212.748 171.484C212.401 171.985 211.959 172.412 211.446 172.742C210.934 173.072 210.361 173.298 209.761 173.407C209.161 173.516 208.545 173.506 207.949 173.378C207.353 173.249 206.788 173.005 206.287 172.659C205.785 172.312 205.357 171.87 205.026 171.359C204.696 170.847 204.47 170.275 204.36 169.676L204.359 169.667C203.902 167.148 205.853 166.256 208.377 165.8C210.901 165.344 213.041 165.496 213.498 168.016Z" fill="white"/>
<path d="M313.891 173.392H75.198C72.882 173.392 70.6608 174.31 69.0231 175.945C67.3854 177.58 66.4653 179.798 66.4653 182.11C66.4653 184.422 67.3854 186.639 69.0231 188.274C70.6608 189.909 72.882 190.828 75.198 190.828H313.891C316.207 190.828 318.428 189.909 320.066 188.274C321.704 186.639 322.624 184.422 322.624 182.11C322.624 179.798 321.704 177.58 320.066 175.945C318.428 174.31 316.207 173.392 313.891 173.392Z" fill="#CCCCCC"/>
<path d="M295.941 98.8043V173.876H294.97V98.8043C294.97 96.2034 294.868 93.6267 294.665 91.0743C294.64 90.7498 294.616 90.4301 294.587 90.1056C293.197 74.4028 288.002 59.2732 279.45 46.0215C279.242 45.697 279.033 45.3773 278.82 45.0528C269.947 31.5802 257.876 20.5061 243.681 12.8158C229.485 5.12546 213.606 1.05738 197.455 0.973517C197.295 0.968674 197.13 0.968669 196.97 0.968669C196.81 0.968669 196.645 0.968674 196.485 0.973517C194.646 0.978361 192.822 1.03648 191.013 1.14788C183.922 1.57057 176.899 2.76756 170.069 4.71742C166.2 5.82036 162.403 7.16296 158.702 8.7374C140.923 16.316 125.768 28.9445 115.121 45.0528C114.907 45.3773 114.699 45.697 114.49 46.0215C105.938 59.2732 100.743 74.4028 99.3536 90.1056C99.3244 90.4301 99.3003 90.7498 99.2759 91.0743C99.0722 93.6267 98.9703 96.2034 98.9703 98.8043V173.876H98V98.8043C98 95.8595 98.1278 92.9487 98.3833 90.0717C99.7959 73.976 105.171 58.4781 114.029 44.956C127.196 24.7351 147.31 10.0148 170.588 3.5647C177.402 1.68298 184.4 0.539817 191.459 0.154991C193.283 0.0532804 195.12 0.00161445 196.97 0C221.702 0.0247496 245.53 9.28232 263.772 25.9535C282.015 42.6248 293.352 65.5042 295.557 90.096C295.81 92.9632 295.937 95.866 295.941 98.8043Z" fill="#3F3D56"/>
<path d="M169.625 243.172C197.09 243.64 197.086 284.426 169.624 284.89C142.16 284.422 142.164 243.636 169.625 243.172Z" fill="#2F2E41"/>
<path d="M166.452 280.401H160.104V291.755H166.452V280.401Z" fill="#2F2E41"/>
<path d="M179.146 280.401H172.799V291.755H179.146V280.401Z" fill="#2F2E41"/>
<path d="M165.393 289.907C172.252 289.858 172.252 293.916 165.393 293.867C158.534 293.916 158.534 289.858 165.393 289.907Z" fill="#2F2E41"/>
<path d="M178.089 289.643C184.947 289.594 184.947 293.652 178.088 293.603C171.23 293.652 171.23 289.594 178.089 289.643Z" fill="#2F2E41"/>
<path d="M170.154 251.621C179.493 251.663 179.492 265.839 170.153 265.879C160.815 265.837 160.816 251.662 170.154 251.621Z" fill="white"/>
<path d="M170.154 256.374C173.243 256.329 173.243 261.172 170.154 261.126C167.066 261.172 167.066 256.328 170.154 256.374Z" fill="#3F3D56"/>
<path d="M149.357 244.633C145.432 226.765 175.501 220.065 179.558 237.901C181.245 245.443 175.718 248.225 167.378 250.084C159.039 251.943 151.044 252.176 149.357 244.633Z" fill="#CCCCCC"/>
<path d="M178.733 187.174C183.6 174.449 189.736 176.79 184.86 189.512C179.993 202.237 173.857 199.896 178.733 187.174Z" fill="#2F2E41"/>
<path d="M141.86 200.753C146.722 173.763 187.048 180.3 183.108 207.436C178.246 234.426 137.92 227.888 141.86 200.753Z" fill="#2F2E41"/>
<path d="M159.31 220.465H152.963V231.818H159.31V220.465Z" fill="#2F2E41"/>
<path d="M172.005 220.465H165.658V231.818H172.005V220.465Z" fill="#2F2E41"/>
<path d="M158.253 229.97C165.111 229.921 165.111 233.98 158.252 233.931C151.394 233.979 151.394 229.921 158.253 229.97Z" fill="#2F2E41"/>
<path d="M170.947 229.706C177.806 229.657 177.806 233.716 170.947 233.667C164.089 233.715 164.089 229.657 170.947 229.706Z" fill="#2F2E41"/>
<path d="M142.216 184.696C138.291 166.828 168.36 160.128 172.417 177.965C174.104 185.507 168.577 188.289 160.237 190.148C151.898 192.007 143.903 192.239 142.216 184.696Z" fill="#252525"/>
<path d="M129.511 189.946C130.988 185.979 150.534 195.234 148.389 198.885C146.913 202.852 127.367 193.597 129.511 189.946Z" fill="#2F2E41"/>
<path d="M235.728 175.495C237.069 174.346 235.183 169.958 231.517 165.695C227.851 161.432 223.792 158.907 222.451 160.056C221.111 161.205 222.996 165.592 226.662 169.856C230.328 174.119 234.387 176.644 235.728 175.495Z" fill="#2F2E41"/>
<path d="M189.195 169.856C192.862 165.592 194.747 161.205 193.406 160.056C192.065 158.907 188.007 161.432 184.34 165.695C180.674 169.958 178.789 174.346 180.13 175.495C181.47 176.644 185.529 174.119 189.195 169.856Z" fill="#2F2E41"/>
<path d="M370.168 65.8703H341.544C340.258 65.8703 339.024 65.3601 338.114 64.4518C337.204 63.5435 336.693 62.3115 336.693 61.027C336.693 59.7425 337.204 58.5105 338.114 57.6022C339.024 56.6939 340.258 56.1837 341.544 56.1837V57.1523C340.515 57.1523 339.528 57.5605 338.8 58.2872C338.072 59.0138 337.663 59.9994 337.663 61.027C337.663 62.0546 338.072 63.0402 338.8 63.7668C339.528 64.4934 340.515 64.9017 341.544 64.9017H370.168V65.8703Z" fill="#E6E6E6"/>
<path d="M340.574 91.5401H311.951C310.664 91.5401 309.43 91.0298 308.52 90.1215C307.61 89.2132 307.099 87.9813 307.099 86.6967C307.099 85.4122 307.61 84.1803 308.52 83.272C309.43 82.3637 310.664 81.8534 311.951 81.8534V82.8221C310.921 82.8221 309.934 83.2303 309.206 83.9569C308.478 84.6836 308.069 85.6691 308.069 86.6967C308.069 87.7244 308.478 88.7099 309.206 89.4365C309.934 90.1632 310.921 90.5714 311.951 90.5714H340.574V91.5401Z" fill="#E6E6E6"/>
<path d="M377.931 116.725V115.757C378.96 115.757 379.947 115.349 380.675 114.622C381.403 113.895 381.812 112.91 381.812 111.882C381.812 110.855 381.403 109.869 380.675 109.142C379.947 108.416 378.96 108.007 377.931 108.007H349.307V107.039H377.931C379.218 107.039 380.452 107.549 381.361 108.457C382.271 109.366 382.782 110.598 382.782 111.882C382.782 113.167 382.271 114.399 381.361 115.307C380.452 116.215 379.218 116.725 377.931 116.725Z" fill="#E6E6E6"/>
<path d="M387.149 28.5766V27.6079C388.178 27.6079 389.165 27.1997 389.893 26.4731C390.621 25.7464 391.03 24.7609 391.03 23.7332C391.03 22.7056 390.621 21.7201 389.893 20.9934C389.165 20.2668 388.178 19.8586 387.149 19.8586H358.525V18.8899H387.149C388.435 18.8899 389.669 19.4002 390.579 20.3085C391.489 21.2168 392 22.4487 392 23.7332C392 25.0178 391.489 26.2497 390.579 27.158C389.669 28.0663 388.435 28.5766 387.149 28.5766Z" fill="#E6E6E6"/>
<path d="M342.515 37.7789H313.891C312.604 37.7789 311.37 37.2687 310.461 36.3604C309.551 35.4521 309.04 34.2201 309.04 32.9356C309.04 31.6511 309.551 30.4191 310.461 29.5108C311.37 28.6025 312.604 28.0922 313.891 28.0922V29.0609C312.862 29.0609 311.874 29.4691 311.147 30.1958C310.419 30.9224 310.01 31.908 310.01 32.9356C310.01 33.9632 310.419 34.9488 311.147 35.6754C311.874 36.402 312.862 36.8103 313.891 36.8103H342.515V37.7789Z" fill="#E6E6E6"/>
<path d="M63.0695 129.803H34.4457C33.159 129.803 31.925 129.292 31.0152 128.384C30.1054 127.476 29.5942 126.244 29.5942 124.959C29.5942 123.675 30.1054 122.443 31.0152 121.534C31.925 120.626 33.159 120.116 34.4457 120.116V121.085C33.4164 121.085 32.4292 121.493 31.7013 122.219C30.9734 122.946 30.5645 123.932 30.5645 124.959C30.5645 125.987 30.9734 126.972 31.7013 127.699C32.4292 128.426 33.4164 128.834 34.4457 128.834H63.0695V129.803Z" fill="#E6E6E6"/>
<path d="M78.1091 146.27V145.301C79.1385 145.301 80.1257 144.893 80.8535 144.166C81.5814 143.44 81.9903 142.454 81.9903 141.427C81.9903 140.399 81.5814 139.413 80.8535 138.687C80.1257 137.96 79.1385 137.552 78.1091 137.552H49.4854V136.583H78.1091C79.3958 136.583 80.6298 137.093 81.5396 138.002C82.4495 138.91 82.9606 140.142 82.9606 141.427C82.9606 142.711 82.4495 143.943 81.5396 144.851C80.6298 145.76 79.3958 146.27 78.1091 146.27Z" fill="#E6E6E6"/>
<path d="M33.4752 155.472H4.85148C3.56479 155.472 2.33079 154.962 1.42096 154.054C0.511133 153.145 0 151.913 0 150.629C0 149.344 0.511133 148.112 1.42096 147.204C2.33079 146.296 3.56479 145.786 4.85148 145.786V146.754C3.82213 146.754 2.83493 147.162 2.10707 147.889C1.3792 148.616 0.970297 149.601 0.970297 150.629C0.970297 151.657 1.3792 152.642 2.10707 153.369C2.83493 154.095 3.82213 154.504 4.85148 154.504H33.4752V155.472Z" fill="#E6E6E6"/>
<path d="M65.0099 76.0414H36.3862C35.0995 76.0414 33.8655 75.5311 32.9556 74.6228C32.0458 73.7145 31.5347 72.4826 31.5347 71.198C31.5347 69.9135 32.0458 68.6816 32.9556 67.7733C33.8655 66.865 35.0995 66.3547 36.3862 66.3547V67.3234C35.3568 67.3234 34.3696 67.7316 33.6417 68.4582C32.9139 69.1849 32.505 70.1704 32.505 71.198C32.505 72.2257 32.9139 73.2112 33.6417 73.9378C34.3696 74.6645 35.3568 75.0727 36.3862 75.0727H65.0099V76.0414Z" fill="#E6E6E6"/>
<path d="M80.0496 92.5088V91.5401C81.0789 91.5401 82.0661 91.1318 82.794 90.4052C83.5218 89.6786 83.9307 88.693 83.9307 87.6654C83.9307 86.6378 83.5218 85.6522 82.794 84.9256C82.0661 84.199 81.0789 83.7907 80.0496 83.7907H51.4258V82.8221H80.0496C81.3362 82.8221 82.5702 83.3323 83.4801 84.2406C84.3899 85.1489 84.901 86.3809 84.901 87.6654C84.901 88.9499 84.3899 90.1819 83.4801 91.0902C82.5702 91.9985 81.3362 92.5088 80.0496 92.5088Z" fill="#E6E6E6"/>
<path d="M35.4157 101.711H6.79191C5.50522 101.711 4.27122 101.201 3.36139 100.293C2.45156 99.3842 1.94043 98.1523 1.94043 96.8678C1.94043 95.5832 2.45156 94.3513 3.36139 93.443C4.27122 92.5347 5.50522 92.0244 6.79191 92.0244V92.9931C5.76256 92.9931 4.77536 93.4013 4.0475 94.1279C3.31963 94.8546 2.91073 95.8401 2.91073 96.8678C2.91073 97.8954 3.31963 98.8809 4.0475 99.6076C4.77536 100.334 5.76256 100.742 6.79191 100.742H35.4157V101.711Z" fill="#E6E6E6"/>
<path d="M271.198 225.216H242.574C241.287 225.216 240.053 224.706 239.144 223.798C238.234 222.89 237.723 221.658 237.723 220.373C237.723 219.089 238.234 217.857 239.144 216.948C240.053 216.04 241.287 215.53 242.574 215.53V216.498C241.545 216.498 240.558 216.907 239.83 217.633C239.102 218.36 238.693 219.345 238.693 220.373C238.693 221.401 239.102 222.386 239.83 223.113C240.558 223.84 241.545 224.248 242.574 224.248H271.198V225.216Z" fill="#E6E6E6"/>
<path d="M303.218 251.371V250.402C304.247 250.402 305.235 249.994 305.962 249.267C306.69 248.54 307.099 247.555 307.099 246.527C307.099 245.5 306.69 244.514 305.962 243.787C305.235 243.061 304.247 242.652 303.218 242.652H274.594V241.684H303.218C304.505 241.684 305.739 242.194 306.649 243.102C307.558 244.011 308.069 245.243 308.069 246.527C308.069 247.812 307.558 249.044 306.649 249.952C305.739 250.86 304.505 251.371 303.218 251.371Z" fill="#E6E6E6"/>
<path d="M245 256.214H216.376C215.09 256.214 213.856 255.704 212.946 254.795C212.036 253.887 211.525 252.655 211.525 251.371C211.525 250.086 212.036 248.854 212.946 247.946C213.856 247.037 215.09 246.527 216.376 246.527V247.496C215.347 247.496 214.36 247.904 213.632 248.631C212.904 249.357 212.495 250.343 212.495 251.371C212.495 252.398 212.904 253.384 213.632 254.11C214.36 254.837 215.347 255.245 216.376 255.245H245V256.214Z" fill="#E6E6E6"/>
<path d="M141.178 253.792V252.824C142.208 252.824 143.195 252.415 143.923 251.689C144.651 250.962 145.06 249.976 145.06 248.949C145.06 247.921 144.651 246.936 143.923 246.209C143.195 245.482 142.208 245.074 141.178 245.074H112.555V244.105H141.178C142.465 244.105 143.699 244.616 144.609 245.524C145.519 246.432 146.03 247.664 146.03 248.949C146.03 250.233 145.519 251.465 144.609 252.374C143.699 253.282 142.465 253.792 141.178 253.792Z" fill="#E6E6E6"/>
<path d="M54.8219 265.901H26.1982C24.9115 265.901 23.6775 265.39 22.7676 264.482C21.8578 263.574 21.3467 262.342 21.3467 261.057C21.3467 259.773 21.8578 258.541 22.7676 257.632C23.6775 256.724 24.9115 256.214 26.1982 256.214V257.183C25.1688 257.183 24.1816 257.591 23.4537 258.317C22.7259 259.044 22.317 260.03 22.317 261.057C22.317 262.085 22.7259 263.07 23.4537 263.797C24.1816 264.524 25.1688 264.932 26.1982 264.932H54.8219V265.901Z" fill="#E6E6E6"/>
<path d="M247.856 293.992H63.014C62.8853 293.992 62.7619 293.941 62.6709 293.85C62.5799 293.759 62.5288 293.636 62.5288 293.508C62.5288 293.379 62.5799 293.256 62.6709 293.165C62.7619 293.074 62.8853 293.023 63.014 293.023H247.856C247.984 293.023 248.108 293.074 248.199 293.165C248.29 293.256 248.341 293.379 248.341 293.508C248.341 293.636 248.29 293.759 248.199 293.85C248.108 293.941 247.984 293.992 247.856 293.992Z" fill="#3F3D56"/>
<path d="M90.495 293.619C90.1212 294.476 88.8697 293.735 89.2383 292.888C90.9531 288.88 92.123 284.661 92.7167 280.343C93.7271 272.936 93.1567 265.4 91.0431 258.229C90.9654 257.972 90.8877 257.71 90.8103 257.454C90.6257 256.863 90.4317 256.272 90.228 255.691C87.9044 248.926 84.152 242.739 79.2247 237.548C78.5797 236.87 79.608 235.843 80.2533 236.521C83.3758 239.783 86.0423 243.452 88.1805 247.428C89.2024 249.321 90.1066 251.275 90.8877 253.279C91.1935 254.059 91.4797 254.848 91.7514 255.637C93.3411 260.342 94.2892 265.239 94.5702 270.197C95.0452 278.214 93.6503 286.231 90.495 293.619Z" fill="#3F3D56"/>
<path d="M101.605 219.598C99.9893 225.502 98.3754 231.406 96.7631 237.31C95.0893 243.423 93.4187 249.532 91.7515 255.637C91.5137 256.504 91.2775 257.368 91.0432 258.229C90.9655 257.972 90.8878 257.71 90.8103 257.454C90.6258 256.863 90.4318 256.272 90.228 255.691C90.4464 254.887 90.6646 254.083 90.8878 253.279C91.1886 252.179 91.4895 251.08 91.7903 249.98C94.5944 239.722 97.3985 229.466 100.203 219.211C100.259 219.031 100.383 218.88 100.549 218.789C100.715 218.699 100.91 218.677 101.092 218.727C101.274 218.777 101.429 218.896 101.525 219.059C101.621 219.222 101.649 219.415 101.605 219.598Z" fill="#3F3D56"/>
<path d="M71.6772 221.714C70.829 223.572 69.9731 225.454 69.606 227.463C69.2389 229.472 69.4061 231.653 70.4944 233.382C71.42 234.704 72.6563 235.778 74.0948 236.511C76.126 237.667 78.7672 238.484 80.7098 237.185C82.6719 235.872 82.8804 232.907 81.7812 230.82C80.682 228.733 78.6397 227.333 76.6474 226.067C74.6551 224.801 73.0938 223.8 71.8018 221.826L71.6772 221.714Z" fill="#252525"/>
<path d="M106.245 202.782C104.302 203.418 102.336 204.066 100.608 205.158C98.8799 206.25 97.3866 207.852 96.8511 209.823C96.5055 211.398 96.5525 213.033 96.9878 214.586C97.5131 216.861 98.7018 219.353 100.976 219.898C103.272 220.449 105.597 218.591 106.389 216.37C107.181 214.148 106.827 211.701 106.409 209.38C105.991 207.06 105.67 205.235 106.247 202.949L106.245 202.782Z" fill="#252525"/>
<path d="M71.373 244.711C71.9129 246.681 72.4621 248.673 73.4682 250.451C74.4743 252.229 76.0017 253.798 77.9465 254.431C79.5048 254.854 81.1434 254.889 82.7185 254.533C85.0205 254.123 87.5735 253.063 88.2327 250.823C88.8984 248.561 87.1569 246.15 84.9743 245.249C82.7916 244.348 80.3251 244.578 77.9826 244.879C75.6401 245.179 73.7987 245.408 71.5405 244.717L71.373 244.711Z" fill="#252525"/>
<path d="M77.1948 270.381C77.7347 272.35 78.2839 274.343 79.29 276.121C80.2961 277.899 81.8235 279.468 83.7683 280.101C85.3266 280.524 86.9652 280.559 88.5403 280.203C90.8423 279.793 93.3953 278.733 94.0545 276.493C94.7202 274.231 92.9787 271.819 90.796 270.919C88.6134 270.018 86.1469 270.248 83.8044 270.549C81.4619 270.849 79.6205 271.078 77.3623 270.387L77.1948 270.381Z" fill="#252525"/>
<path d="M109.103 253.429C108.563 255.399 108.014 257.391 107.007 259.169C106.001 260.947 104.474 262.516 102.529 263.149C100.971 263.572 99.3322 263.608 97.7571 263.251C95.4551 262.842 92.9021 261.781 92.2429 259.542C91.5771 257.279 93.3187 254.868 95.5013 253.967C97.684 253.066 100.15 253.296 102.493 253.597C104.835 253.897 106.677 254.126 108.935 253.435L109.103 253.429Z" fill="#252525"/>
<path d="M114.924 227.275C114.384 229.245 113.835 231.237 112.829 233.015C111.823 234.793 110.296 236.362 108.351 236.995C106.793 237.418 105.154 237.453 103.579 237.097C101.277 236.687 98.7238 235.627 98.0647 233.387C97.3989 231.125 99.1405 228.714 101.323 227.813C103.506 226.912 105.972 227.142 108.315 227.443C110.657 227.743 112.499 227.972 114.757 227.281L114.924 227.275Z" fill="#252525"/>
</g>
<defs>
<clipPath id="clip0_6_274">
<rect width="392" height="294" fill="white"/>
</clipPath>
</defs>
</svg>
